# xmcd
#
# Track frame offsets: 
#        150
#        11989
#        21444
#        39968
#        51736
#        67205
#        78446
#        94703
#        105909
#        120943
#        133217
#
# Disc length: 2021 seconds
#
# Revision: 4
# Processed by: cddbd v1.5.2PL0 Copyright (c) Steve Scherf et al.
# Submitted via: ExactAudioCopy v1.3
#
DISCID=9407e30b
DTITLE=Sara Evans - Three Cords And The Truth
DYEAR=1997
DGENRE=Country
TTITLE0=True Lies
TTITLE1=Shame About That
TTITLE2=Three Chords And The Truth
TTITLE3=If You Ever Want My Lovin'
TTITLE4=Imagine That
TTITLE5=Even Now
TTITLE6=I Don't Wanna See The Light
TTITLE7=I've Got A Tiger By The Tail
TTITLE8=Unopened
TTITLE9=Walk Out Backwards
TTITLE10=The Week The River Raged
EXTD=YEAR: 1997
EXTT0=
EXTT1=
EXTT2=
EXTT3=
EXTT4=
EXTT5=
EXTT6=
EXTT7=
EXTT8=
EXTT9=
EXTT10=
PLAYORDER=
